HIERARCHY
ROOT Hips
{
 OFFSET 0.000000 0.000000 0.000000
 CHANNELS 6 Xposition Yposition Zposition Yrotation Xrotation Zrotation
 JOINT Chest
 {
  OFFSET 0.000000 10.738899 -1.193211
  CHANNELS 3 Yrotation Xrotation Zrotation
  JOINT Chest2
  {
   OFFSET 0.000000 11.999099 0.000000
   CHANNELS 3 Yrotation Xrotation Zrotation
   JOINT Chest3
   {
    OFFSET 0.000000 10.954005 0.008395
    CHANNELS 3 Yrotation Xrotation Zrotation
    JOINT Chest4
    {
     OFFSET 0.000000 10.941780 0.008404
     CHANNELS 3 Yrotation Xrotation Zrotation
     JOINT Neck
     {
      OFFSET 0.000000 15.318515 0.000000
      CHANNELS 3 Yrotation Xrotation Zrotation
      JOINT Head
      {
       OFFSET 0.000000 10.184672 -0.018055
       CHANNELS 3 Yrotation Xrotation Zrotation
       End Site
       {
        OFFSET 0.000000 18.955491 -0.002428
       }
      }
     }
     JOINT RightCollar
     {
      OFFSET -3.314535 8.581803 0.000000
      CHANNELS 3 Yrotation Xrotation Zrotation
      JOINT RightShoulder
      {
       OFFSET -15.326000 0.000000 0.000000
       CHANNELS 3 Yrotation Xrotation Zrotation
       JOINT RightElbow
       {
        OFFSET -32.718526 0.000000 0.000000
        CHANNELS 3 Yrotation Xrotation Zrotation
        JOINT RightWrist
        {
         OFFSET -26.761202 0.000000 0.000000
         CHANNELS 3 Yrotation Xrotation Zrotation
         JOINT Prop1
         {
          OFFSET -9.847056 -1.094117 2.188235
          CHANNELS 3 Yrotation Xrotation Zrotation
          End Site
          {
           OFFSET 0.000000 0.000000 149.099226
          }
         }
         End Site
         {
          OFFSET -20.022348 0.000000 0.000000
         }
        }
       }
      }
     }
     JOINT LeftCollar
     {
      OFFSET 3.314535 8.581803 0.000000
      CHANNELS 3 Yrotation Xrotation Zrotation
      JOINT LeftShoulder
      {
       OFFSET 15.326000 0.000000 0.000000
       CHANNELS 3 Yrotation Xrotation Zrotation
       JOINT LeftElbow
       {
        OFFSET 32.718526 0.000000 0.000000
        CHANNELS 3 Yrotation Xrotation Zrotation
        JOINT LeftWrist
        {
         OFFSET 26.761202 0.000000 0.000000
         CHANNELS 3 Yrotation Xrotation Zrotation
         End Site
         {
          OFFSET 20.022348 0.000000 0.000000
         }
        }
       }
      }
     }
    }
   }
  }
 }
 JOINT RightHip
 {
  OFFSET -8.795616 -0.019341 0.002149
  CHANNELS 3 Yrotation Xrotation Zrotation
  JOINT RightKnee
  {
   OFFSET 0.000000 -45.772294 0.001985
   CHANNELS 3 Yrotation Xrotation Zrotation
   JOINT RightAnkle
   {
    OFFSET 0.000000 -44.761703 0.003346
    CHANNELS 3 Yrotation Xrotation Zrotation
    JOINT RightToe
    {
     OFFSET 0.000000 -7.168792 16.165742
     CHANNELS 3 Yrotation Xrotation Zrotation
     End Site
     {
      OFFSET 0.000000 -1.642381 7.007491
     }
    }
   }
  }
 }
 JOINT LeftHip
 {
  OFFSET 8.795616 -0.021756 0.002417
  CHANNELS 3 Yrotation Xrotation Zrotation
  JOINT LeftKnee
  {
   OFFSET 0.000000 -45.772294 0.001985
   CHANNELS 3 Yrotation Xrotation Zrotation
   JOINT LeftAnkle
   {
    OFFSET 0.000000 -44.761703 0.003346
    CHANNELS 3 Yrotation Xrotation Zrotation
    JOINT LeftToe
    {
     OFFSET 0.000000 -7.168792 16.165742
     CHANNELS 3 Yrotation Xrotation Zrotation
     End Site
     {
      OFFSET 0.000000 -1.642381 7.007491
     }
    }
   }
  }
 }
}
MOTION
Frames: 13
Frame Time: 0.016667
9.969604 88.622688 -10.694594 12.273399 48.499683 -16.773850 0.683190 19.303683 -10.406218 1.203727 2.754802 -4.539695 1.216412 8.573972 -4.416070 0.627745 12.248882 -3.379057 3.954582 3.354674 3.332236 6.187227 -29.823858 4.515268 21.476636 7.489497 -2.691357 121.469425 -57.530578 -54.953341 36.543477 -20.561280 -6.883625 -5.090068 2.476285 0.717151 175.835050 -83.967255 144.037080 -7.078562 13.156309 -2.924016 -82.360528 -56.553260 43.526723 -42.567353 -50.363658 10.808437 4.418867 -4.430808 5.283273 -31.088198 -43.667716 5.519307 -9.375184 20.378902 -1.373430 -7.721140 3.540359 23.859123 -0.588705 -10.412165 6.464121 -83.148758 -72.390332 94.058245 0.855232 53.721110 -8.738813 7.711575 -13.252056 -3.230811 -0.003560 -0.213054 1.192669
9.956492 88.571189 -10.839230 12.158947 48.647012 -16.744755 0.522514 19.350651 -10.347569 1.128660 2.779006 -4.507064 1.140624 8.598315 -4.391125 0.572842 12.267828 -3.359100 3.870203 3.376407 3.470634 5.927533 -29.786512 4.854733 21.745349 7.569776 -2.773414 122.049710 -57.148258 -55.006867 37.215928 -20.449769 -7.538953 -5.514993 2.915284 0.960807 173.357063 -84.203485 146.277548 -6.853255 13.328383 -2.991901 -82.682933 -56.841218 43.681271 -44.035287 -50.755261 12.218359 4.907620 -4.142230 5.196070 -31.263568 -43.707014 5.656613 -9.014757 20.002886 -1.276910 -7.708907 3.154536 23.762466 -0.562936 -9.983149 6.440642 -84.106988 -72.309414 95.084814 1.147087 53.867001 -8.753278 7.556927 -13.110339 -3.054149 -0.004762 -0.311454 1.752083
9.925993 88.501349 -11.010364 12.024226 48.734346 -16.635856 0.384044 19.378180 -10.305893 1.064455 2.794066 -4.482879 1.075794 8.613457 -4.373506 0.525614 12.279724 -3.344820 3.703684 3.427852 3.661552 5.465658 -29.692929 5.353061 21.984348 7.525627 -2.805688 123.163874 -57.092684 -55.384283 37.533198 -19.642884 -7.783030 -5.746462 3.187954 0.751499 175.308183 -84.395743 143.986633 -6.798867 13.555237 -3.066920 -83.519243 -57.680712 44.625186 -44.241347 -50.271909 12.213373 5.397806 -4.222012 5.193622 -31.372824 -43.801632 5.641883 -9.303082 19.738998 -1.307254 -7.344373 2.792585 24.050037 -0.500619 -9.493834 6.010111 -84.786135 -72.228029 95.789921 1.438382 53.974120 -8.720077 7.560602 -13.017715 -3.046957 -0.005188 -0.343495 1.891169
9.889748 88.429322 -11.203468 11.842519 48.753485 -16.497372 0.244235 19.391016 -10.272088 1.000012 2.802624 -4.462189 1.010712 8.622097 -4.359419 0.477936 12.286728 -3.333198 3.497966 3.501989 3.886436 4.903216 -29.553686 5.944006 22.258754 7.402171 -2.838915 124.506857 -57.173118 -55.820627 37.579088 -18.438290 -7.877713 -5.869288 3.406840 0.362847 179.749545 -84.481873 139.206527 -6.824407 13.807171 -3.178974 -84.708105 -58.815482 46.085621 -43.688622 -49.206872 11.465412 5.871419 -4.450841 5.263970 -31.455877 -43.930386 5.547264 -9.894439 19.565240 -1.379868 -6.801695 2.464055 24.497154 -0.423234 -8.948116 5.395342 -85.176464 -72.154517 96.200658 1.723241 54.045613 -8.662311 7.664020 -12.939442 -3.101163 -0.005254 -0.343748 1.831227
9.863982 88.363238 -11.414108 11.617204 48.679703 -16.372073 0.056956 19.396575 -10.228466 0.913553 2.809050 -4.435361 0.923370 8.628752 -4.341496 0.413848 12.292509 -3.318354 3.318166 3.585204 4.136564 4.381431 -29.395347 6.569927 22.708322 7.276846 -2.942823 125.396440 -57.050140 -55.859631 37.319808 -17.564811 -8.106765 -5.883667 3.578569 0.343939 -178.975527 -84.686553 137.769083 -6.791633 14.011758 -3.397548 -85.664148 -59.731526 47.415879 -42.979402 -48.444636 10.801904 6.170932 -4.676992 5.297982 -31.554021 -44.062004 5.436944 -10.362106 19.499576 -1.391893 -6.361874 2.160655 24.861821 -0.356452 -8.411647 4.844337 -85.235021 -72.130934 96.308138 1.936504 54.084634 -8.642126 7.798806 -12.856590 -3.077094 -0.004995 -0.334010 1.713409
9.859984 88.302039 -11.644338 11.317276 48.487310 -16.307276 -0.238453 19.387319 -10.176935 0.778260 2.811202 -4.400731 0.786668 8.631259 -4.320811 0.313018 12.295590 -3.300696 3.213463 3.678651 4.410061 4.003317 -29.216826 7.197176 23.549600 7.191134 -3.155287 125.231762 -56.442799 -55.048739 36.724930 -17.423685 -8.776081 -5.847592 3.657270 1.118520 174.578783 -85.147792 144.354453 -6.665799 14.153946 -3.850884 -85.936437 -60.102615 48.319090 -42.251306 -48.406869 10.616948 6.351441 -4.783369 5.069753 -31.703604 -44.166307 5.354309 -10.545664 19.545977 -1.294781 -6.136840 1.888280 25.106543 -0.303328 -7.910962 4.390022 -84.915959 -72.177170 96.099012 2.005735 54.098989 -8.716883 7.962840 -12.775136 -2.901272 -0.004307 -0.314954 1.566837
9.866465 88.246783 -11.892103 10.975271 48.201917 -16.253345 -0.581874 19.370045 -10.116888 0.620853 2.810503 -4.360417 0.627642 8.630745 -4.296656 0.195729 12.296452 -3.280020 3.133049 3.784132 4.707381 3.663445 -29.013250 7.856782 24.569228 7.118810 -3.431623 124.656024 -55.634403 -53.871018 35.836977 -17.625112 -9.600395 -5.715121 3.689306 2.262641 162.470110 -85.583630 156.778246 -6.482426 14.249870 -4.411705 -85.870104 -60.272375 48.990552 -41.305257 -48.675134 10.459962 6.355525 -4.888737 4.811888 -31.867728 -44.274803 5.255834 -10.607007 19.702524 -1.142286 -6.011735 1.639088 25.268297 -0.258342 -7.421168 3.996742 -84.262696 -72.272789 95.583092 2.002963 54.080787 -8.829843 8.158187 -12.689281 -2.646919 -0.003400 -0.285935 1.362384
9.865777 88.208769 -12.146808 10.688084 47.876039 -16.109445 -0.838567 19.374447 -10.026774 0.499692 2.817241 -4.310427 0.505265 8.637466 -4.259053 0.106741 12.302442 -3.249626 2.992583 3.886448 5.024103 3.190196 -28.810297 8.590418 25.261170 7.023868 -3.721932 124.760161 -55.153041 -53.185412 34.716211 -17.698259 -9.987934 -5.318810 3.807529 3.056865 151.253820 -85.871856 168.282321 -6.204078 14.282176 -4.764219 -85.995779 -60.746289 49.444447 -40.151889 -48.882165 9.822210 5.856854 -5.206291 5.114856 -31.977215 -44.448711 5.075515 -10.603653 19.978692 -0.987018 -5.924501 1.377251 25.215091 -0.227494 -6.926366 3.811651 -83.364532 -72.397915 94.784390 2.079820 54.010045 -8.871546 8.323016 -12.562433 -2.394762 -0.002686 -0.266735 1.153845
9.856906 88.197028 -12.410305 10.482366 47.524868 -15.829095 -0.950589 19.421330 -9.898452 0.440087 2.839686 -4.249511 0.445069 8.659903 -4.204247 0.065383 12.319913 -3.207117 2.753349 3.971515 5.364303 2.501405 -28.629928 9.429499 25.396546 6.851830 -4.042254 126.122311 -55.213124 -53.421457 33.270509 -17.401795 -9.664837 -4.494227 4.104838 3.182786 144.610850 -86.199067 175.008700 -5.750889 14.248315 -4.724276 -86.768672 -61.839266 49.843767 -38.703332 -48.916886 8.329514 4.538644 -5.904456 6.558444 -31.991080 -44.736263 4.770468 -10.528619 20.405016 -0.838571 -5.856496 1.100276 24.834706 -0.214399 -6.450266 3.949540 -82.207936 -72.544281 93.652067 2.323282 53.866936 -8.772157 8.438417 -12.376680 -2.159288 -0.002155 -0.262264 0.941572
9.840867 88.202529 -12.680741 10.327405 47.133660 -15.462206 -0.976910 19.491180 -9.739604 0.416164 2.870485 -4.178737 0.420906 8.690739 -4.135939 0.051839 12.343546 -3.154889 2.453495 4.047355 5.723899 1.678815 -28.455387 10.341986 25.207232 6.637126 -4.384809 128.152288 -55.603201 -54.161083 31.583844 -16.942899 -8.946370 -3.390951 4.487755 2.980106 139.852542 -86.595709 179.824387 -5.198232 14.154947 -4.474839 -87.772997 -63.239377 50.076541 -37.059741 -48.852644 6.378369 2.676880 -6.771643 8.580338 -31.944128 -45.090304 4.381425 -10.388942 20.950027 -0.687582 -5.823777 0.805679 24.238641 -0.207471 -5.966040 4.296088 -80.788172 -72.712518 92.217261 2.644107 53.671051 -8.602975 8.523459 -12.149706 -1.926217 -0.001694 -0.267692 0.725220
9.803060 88.209479 -12.941965 10.231905 46.710054 -15.055091 -0.957962 19.553804 -9.551713 0.409520 2.897037 -4.097380 0.414206 8.717334 -4.055258 0.052106 12.363945 -3.093462 2.124026 4.129496 6.086404 0.797510 -28.258686 11.274082 24.873941 6.465472 -4.669852 130.114273 -56.233830 -54.927045 29.964833 -16.513537 -8.112471 -2.300864 4.797433 2.710094 135.879413 -87.000706 -175.840046 -4.739409 14.001982 -4.249575 -88.174369 -64.508235 49.677572 -35.556122 -48.615045 4.653022 0.886964 -7.499560 10.054880 -31.882158 -45.428509 3.968226 -10.263741 21.529392 -0.558804 -5.815766 0.457421 23.631055 -0.190187 -5.380868 4.655447 -79.209759 -72.897217 90.629601 2.930814 53.462171 -8.465244 8.573591 -11.898250 -1.733411 -0.001402 -0.288114 0.557544
9.739157 88.213896 -13.191297 10.196878 46.242845 -14.618087 -0.901887 19.598456 -9.329909 0.415895 2.914721 -4.003150 0.420651 8.735023 -3.960364 0.063038 12.377613 -3.021366 1.769645 4.233969 6.439644 -0.122874 -28.011131 12.196042 24.415395 6.312697 -4.906811 131.899925 -57.153033 -55.654029 28.350167 -16.175646 -7.192364 -1.276677 4.996337 2.446297 133.536678 -87.463058 -172.624122 -4.420051 13.721365 -4.123617 -87.437668 -65.461051 48.200733 -34.163302 -48.183246 3.308854 -0.609029 -8.017855 10.404980 -31.854949 -45.717680 3.564616 -10.172227 22.112489 -0.440764 -5.847175 0.016934 23.037621 -0.152589 -4.580503 4.979542 -77.449122 -73.096591 88.889155 3.153311 53.252685 -8.396361 8.575164 -11.619452 -1.600319 -0.001357 -0.332251 0.467990
9.653487 88.219762 -13.431416 10.217607 45.742420 -14.144374 -0.801069 19.636128 -9.078116 0.439229 2.928380 -3.897970 0.444221 8.748654 -3.852790 0.087530 12.388161 -2.939859 1.383404 4.342472 6.793657 -1.103086 -27.744583 13.132909 23.808922 6.198336 -5.093029 133.650875 -58.314578 -56.456947 26.791749 -15.844782 -6.151029 -0.260853 5.115765 2.113713 133.209164 -87.969270 -171.122710 -4.191490 13.378449 -4.023975 -85.935428 -66.252031 45.918721 -32.940631 -47.601782 2.212551 -1.999026 -8.442830 10.214599 -31.811849 -45.991317 3.135379 -10.096489 22.729743 -0.346492 -5.900557 -0.478909 22.434886 -0.101007 -3.679303 5.315101 -75.506157 -73.303529 86.972922 3.342916 53.030806 -8.358482 8.542214 -11.316233 -1.507994 -0.001459 -0.391272 0.427124
